# xmcd
#
# Track frame offsets: 
#        150
#        31438
#        90747
#        120084
#        150198
#        204217
#
# Disc length: 3593 seconds
#
# Revision: 0
# Processed by: cddbd v1.5.1PL0 Copyright (c) Steve Scherf et al.
# Submitted via: ExactAudioCopy v0.95a5
#
DISCID=350e0706
DTITLE=Haino Keiji - Black Blues (Acoustic)
DYEAR=2004
DGENRE=Alternative
TTITLE0=Black Petal
TTITLE1=Black Eyes
TTITLE2=Town In Black Fog
TTITLE3=I Don't Want To Know
TTITLE4=Drifting
TTITLE5=See That My Grave Is Kept Clean
EXTD=Acoustic version of the album. An electric version exists with th
EXTD=e same title and (almost) the same cover art.
EXTT0=
EXTT1=
EXTT2=
EXTT3=
EXTT4=
EXTT5=
PLAYORDER=
